<svg width="32" height="35" viewBox="0 0 32 35" fill="none" xmlns="http://www.w3.org/2000/svg">
<path d="M24.5756 33.0129C22.4316 33.937 20.2277 34.3987 17.964 34.3978C15.7003 34.3969 13.5488 33.9911 11.5096 33.1803C9.47036 32.3695 7.62758 31.1873 5.98123 29.6336C4.33487 28.0799 3.04962 26.2311 2.12545 24.087C1.19002 21.9169 0.725565 19.7065 0.732089 17.4558C0.738613 15.2052 1.14726 13.0602 1.95802 11.021C2.76878 8.98179 3.95101 7.139 5.5047 5.49265C7.05839 3.8463 8.90725 2.56104 11.0513 1.63687C12.4632 1.02828 13.9148 0.619616 15.4061 0.410884C16.8973 0.202153 18.3647 0.189748 19.8082 0.373668C18.0262 2.78504 16.9326 5.48097 16.5276 8.46148C16.1226 11.442 16.5512 14.3964 17.8135 17.3249C19.0757 20.2533 20.9293 22.5935 23.3743 24.3456C25.8192 26.0976 28.5301 27.1537 31.5067 27.5139C30.6493 28.6896 29.6327 29.7479 28.457 30.6887C27.2814 31.6296 25.9875 32.4043 24.5756 33.0129Z" fill="white"/>
</svg>
